<?xml version="1.0" encoding="utf-8"?>
<!-- Generator: Adobe Illustrator 27.5.0, SVG Export Plug-In . SVG Version: 6.00 Build 0)  -->
<svg version="1.1" xmlns="http://www.w3.org/2000/svg" xmlns:xlink="http://www.w3.org/1999/xlink" x="0px" y="0px"
	 viewBox="0 0 1122 1122" style="enable-background:new 0 0 1122 1122;" xml:space="preserve">
<g id="Bg">
	<g>
		<g>
			<rect style="fill:#FFFFFF;" width="1122" height="1122"/>
		</g>
	</g>
</g>
<g id="Object">
	<g>
		<path style="fill:#616E7D;" d="M373.911,273.221c-9.399,0-18.594,3.807-25.249,10.452c-6.636,6.645-10.452,15.845-10.452,25.24
			v4.478h445.58v-4.478c0-9.396-3.801-18.595-10.452-25.24c-6.636-6.645-15.832-10.452-25.231-10.452H373.911z"/>
		<path style="fill:#616E7D;" d="M348.662,838.332c6.655,6.639,15.85,10.446,25.249,10.446h374.196
			c9.399,0,18.595-3.807,25.231-10.452c6.651-6.648,10.452-15.835,10.452-25.231v-480.7H338.21v480.7
			C338.21,822.491,342.026,831.678,348.662,838.332z M382.366,563.397v-36.945h91.725v36.945c0,2.266-0.926,4.478-2.527,6.082
			c-1.601,1.601-3.819,2.518-6.073,2.518H390.96c-2.254,0-4.47-0.917-6.07-2.518C383.292,567.878,382.366,565.663,382.366,563.397z
			 M479.344,804.571c0,2.266-0.907,4.481-2.508,6.082c-1.601,1.598-3.819,2.521-6.092,2.521h-74.51
			c-2.273,0-4.473-0.923-6.091-2.521c-1.598-1.601-2.506-3.816-2.506-6.082v-74.516c0-2.264,0.908-4.482,2.506-6.083
			c1.601-1.598,3.819-2.521,6.091-2.521h74.51c2.273,0,4.491,0.923,6.092,2.521c1.601,1.601,2.508,3.819,2.508,6.083V804.571z
			 M479.363,686.922c0,2.263-0.926,4.479-2.527,6.082c-1.601,1.598-3.819,2.518-6.073,2.518h-74.528
			c-2.273,0-4.473-0.92-6.073-2.518c-1.616-1.598-2.524-3.819-2.524-6.082v-74.519c0-2.264,0.908-4.484,2.524-6.083
			c1.601-1.598,3.801-2.517,6.073-2.517h74.528c2.254,0,4.473,0.92,6.073,2.517c1.601,1.598,2.527,3.819,2.527,6.083V686.922z
			 M500.484,563.397v-36.945h91.725v36.945c0,2.266-0.927,4.478-2.524,6.082c-1.601,1.601-3.816,2.518-6.07,2.518h-74.531
			c-2.255,0-4.473-0.917-6.073-2.518C501.41,567.878,500.484,565.663,500.484,563.397z M505.029,612.403
			c0-2.264,0.926-4.484,2.527-6.083c1.601-1.598,3.819-2.517,6.073-2.517h74.531c2.255,0,4.47,0.92,6.07,2.517
			c1.598,1.598,2.524,3.819,2.524,6.083v74.519c0,2.263-0.927,4.479-2.524,6.082c-1.6,1.598-3.816,2.518-6.07,2.518h-74.531
			c-2.254,0-4.473-0.92-6.073-2.518c-1.601-1.598-2.527-3.819-2.527-6.082V612.403z M597.117,804.571
			c0,2.266-0.926,4.481-2.524,6.082c-1.601,1.598-3.816,2.521-6.07,2.521h-74.531c-2.273,0-4.473-0.923-6.073-2.521
			c-1.619-1.601-2.527-3.816-2.527-6.082v-74.516c0-2.264,0.908-4.482,2.527-6.083c1.601-1.598,3.801-2.521,6.073-2.521h74.531
			c2.255,0,4.469,0.923,6.07,2.521c1.598,1.601,2.524,3.819,2.524,6.083V804.571z M734.436,804.571c0,2.318-0.89,4.494-2.527,6.133
			c-1.636,1.634-3.816,2.536-6.124,2.536h-92.469c-2.294,0-4.528-0.923-6.146-2.536c-1.619-1.616-2.527-3.849-2.527-6.133V605.177
			c0-2.285,0.908-4.515,2.527-6.131c1.619-1.616,3.852-2.542,6.146-2.542h92.469c2.273,0,4.509,0.926,6.124,2.542
			c1.619,1.616,2.527,3.846,2.527,6.131V804.571z M628.424,563.397v-36.945h91.707v36.945c0,2.266-0.908,4.478-2.508,6.082
			c-1.62,1.601-3.819,2.518-6.092,2.518h-74.513c-2.273,0-4.487-0.917-6.088-2.518C629.332,567.878,628.424,565.663,628.424,563.397
			z M370.51,354.138h380.996v144.886H370.51V354.138z"/>
		<path style="fill:#AAD4C8;" d="M633.315,596.505c-2.294,0-4.528,0.926-6.146,2.542c-1.619,1.616-2.527,3.846-2.527,6.131v199.394
			c0,2.284,0.908,4.518,2.527,6.133c1.619,1.613,3.852,2.536,6.146,2.536h92.469c2.309,0,4.488-0.902,6.124-2.536
			c1.637-1.64,2.527-3.816,2.527-6.133V605.177c0-2.285-0.908-4.515-2.527-6.131c-1.616-1.616-3.852-2.542-6.124-2.542H633.315z
			 M703.734,717.497h-51.025v-8.534h51.025V717.497z M703.734,694.475h-51.025v-8.533h51.025V694.475z"/>
		<path style="fill:#82BFAB;" d="M513.629,603.803c-2.254,0-4.473,0.92-6.073,2.517c-1.601,1.598-2.527,3.819-2.527,6.083v74.519
			c0,2.263,0.926,4.484,2.527,6.082c1.601,1.598,3.819,2.518,6.073,2.518h74.531c2.255,0,4.47-0.92,6.07-2.518
			c1.598-1.603,2.524-3.819,2.524-6.082v-74.519c0-2.264-0.927-4.484-2.524-6.083c-1.6-1.598-3.816-2.517-6.07-2.517H513.629z"/>
		<path style="fill:#82BFAB;" d="M513.992,721.452c-2.273,0-4.473,0.923-6.073,2.521c-1.619,1.601-2.527,3.819-2.527,6.083v74.516
			c0,2.266,0.908,4.481,2.527,6.082c1.601,1.598,3.801,2.521,6.073,2.521h74.531c2.255,0,4.469-0.923,6.07-2.521
			c1.598-1.601,2.524-3.816,2.524-6.082v-74.516c0-2.264-0.926-4.482-2.524-6.083c-1.601-1.598-3.816-2.521-6.07-2.521H513.992z"/>
		<path style="fill:#82BFAB;" d="M396.234,603.803c-2.273,0-4.473,0.92-6.073,2.517c-1.616,1.598-2.524,3.819-2.524,6.083v74.519
			c0,2.263,0.908,4.484,2.524,6.082c1.601,1.598,3.801,2.518,6.073,2.518h74.528c2.254,0,4.473-0.92,6.073-2.518
			c1.601-1.603,2.527-3.819,2.527-6.082v-74.519c0-2.264-0.926-4.484-2.527-6.083c-1.601-1.598-3.819-2.517-6.073-2.517H396.234z"/>
		<path style="fill:#82BFAB;" d="M503.011,569.479c1.601,1.601,3.819,2.518,6.073,2.518h74.531c2.255,0,4.469-0.917,6.07-2.518
			c1.598-1.604,2.524-3.816,2.524-6.082v-36.945h-91.725v36.945C500.484,565.663,501.41,567.878,503.011,569.479z"/>
		<path style="fill:#82BFAB;" d="M630.93,569.479c1.601,1.601,3.816,2.518,6.088,2.518h74.513c2.273,0,4.472-0.917,6.092-2.518
			c1.6-1.604,2.508-3.816,2.508-6.082v-36.945h-91.707v36.945C628.424,565.663,629.332,567.878,630.93,569.479z"/>
		<path style="fill:#82BFAB;" d="M384.89,569.479c1.6,1.601,3.816,2.518,6.07,2.518h74.531c2.255,0,4.473-0.917,6.073-2.518
			c1.601-1.604,2.527-3.816,2.527-6.082v-36.945h-91.725v36.945C382.366,565.663,383.292,567.878,384.89,569.479z"/>
		<path style="fill:#82BFAB;" d="M396.234,721.452c-2.273,0-4.49,0.923-6.091,2.521c-1.598,1.601-2.506,3.819-2.506,6.083v74.516
			c0,2.266,0.908,4.481,2.506,6.082c1.619,1.598,3.819,2.521,6.091,2.521h74.51c2.273,0,4.491-0.923,6.092-2.521
			c1.601-1.601,2.508-3.816,2.508-6.082v-74.516c0-2.264-0.907-4.482-2.508-6.083c-1.601-1.598-3.819-2.521-6.092-2.521H396.234z"/>
		<path style="fill:#FFFFFF;" d="M751.505,499.024V354.138H370.51v144.886H751.505z M678.669,461.265l1.308-1.008
			c0.363,0,0.98,0.245,1.873,0.735c0.887,0.49,2.033,1.02,3.417,1.58c1.379,0.563,2.999,1.09,4.854,1.586
			c1.854,0.49,3.96,0.735,6.324,0.735c2,0,3.764-0.239,5.29-0.711c1.528-0.472,2.817-1.135,3.891-1.985
			c1.072-0.86,1.873-1.901,2.403-3.114c0.524-1.216,0.796-2.575,0.796-4.064c0-1.634-0.327-3.105-0.962-4.418
			c-0.636-1.308-1.583-2.427-2.835-3.353c-1.253-0.926-2.838-1.647-4.745-2.155c-1.909-0.508-4.142-0.762-6.727-0.762h-6.107
			l-1.2-0.188l-0.818-0.793l-0.471-1.665c-0.092-0.708-0.13-1.628-0.13-2.753c0-1.056,0.038-1.916,0.13-2.59l0.435-1.556
			l0.762-0.762l1.127-0.218h6.163c2.109,0,3.982-0.242,5.617-0.738c1.637-0.49,3.001-1.192,4.109-2.1
			c1.108-0.908,1.964-2.003,2.545-3.298c0.584-1.289,0.874-2.717,0.874-4.279c0-1.199-0.2-2.336-0.602-3.407
			c-0.399-1.072-0.998-2.004-1.779-2.781c-0.783-0.783-1.782-1.401-3.02-1.855c-1.234-0.454-2.687-0.684-4.363-0.684
			c-1.889,0-3.671,0.285-5.341,0.847c-1.673,0.563-3.18,1.18-4.508,1.852c-1.329,0.672-2.454,1.301-3.38,1.882
			c-0.93,0.581-1.604,0.871-2.04,0.871l-0.762-0.187l-0.545-0.739l-0.329-1.582c-0.07-0.687-0.107-1.577-0.107-2.672
			c0-0.908,0.015-1.665,0.055-2.263l0.218-1.495l0.4-1.041l0.799-0.953c0.363-0.342,1.111-0.863,2.237-1.552
			c1.126-0.69,2.545-1.362,4.255-2.022c1.709-0.653,3.671-1.21,5.91-1.664c2.233-0.454,4.669-0.678,7.287-0.678
			c3.418,0,6.435,0.399,9.071,1.198c2.636,0.802,4.854,1.955,6.651,3.468c1.8,1.507,3.165,3.359,4.091,5.556
			c0.926,2.203,1.398,4.685,1.398,7.45c0,2.142-0.272,4.142-0.816,5.994c-0.545,1.855-1.344,3.51-2.4,4.966
			c-1.056,1.453-2.378,2.687-3.964,3.704c-1.58,1.023-3.398,1.785-5.471,2.294v0.16c2.472,0.293,4.693,0.92,6.655,1.879
			c1.963,0.968,3.619,2.178,4.981,3.631c1.365,1.453,2.418,3.099,3.147,4.936c0.726,1.837,1.089,3.807,1.089,5.916
			c0,3.528-0.674,6.657-2.015,9.381c-1.346,2.729-3.219,5.017-5.619,6.869c-2.4,1.858-5.271,3.262-8.615,4.227
			c-3.347,0.966-6.999,1.449-10.964,1.449c-2.399,0-4.654-0.175-6.763-0.521c-2.106-0.348-3.979-0.775-5.598-1.283
			c-1.616-0.509-2.944-1.035-4-1.583c-1.053-0.545-1.743-0.959-2.07-1.25l-0.747-0.983l-0.433-1.283l-0.273-1.855
			c-0.057-0.744-0.076-1.646-0.076-2.696C678.23,463.144,678.376,461.937,678.669,461.265z M621.952,466.01
			c0.109-0.853,0.309-1.622,0.599-2.294l1.108-1.961l1.782-2.1l12.216-13.087c2.435-2.545,4.4-4.863,5.888-6.951
			c1.492-2.094,2.654-4,3.492-5.728c0.835-1.728,1.398-3.319,1.707-4.772c0.312-1.453,0.475-2.835,0.475-4.146
			c0-1.198-0.203-2.336-0.584-3.407c-0.381-1.074-0.944-2.009-1.688-2.808c-0.747-0.799-1.673-1.428-2.799-1.882
			c-1.129-0.454-2.454-0.681-3.983-0.681c-2.146,0-4.055,0.276-5.707,0.82c-1.655,0.545-3.11,1.15-4.363,1.828
			c-1.256,0.672-2.291,1.286-3.125,1.852l-1.965,0.847l-0.853-0.33l-0.563-1.093c-0.148-0.508-0.272-1.186-0.363-2.045
			c-0.091-0.853-0.13-1.895-0.13-3.135l0.072-2.094l0.257-1.477l0.436-1.089l0.944-1.119c0.454-0.436,1.289-0.993,2.509-1.665
			c1.217-0.672,2.726-1.325,4.506-1.961c1.785-0.635,3.746-1.174,5.891-1.609c2.146-0.436,4.382-0.654,6.71-0.654
			c3.669,0,6.868,0.466,9.616,1.392c2.745,0.926,5.035,2.215,6.851,3.873c1.818,1.652,3.165,3.613,4.055,5.889
			c0.89,2.27,1.344,4.714,1.344,7.332c0,2.291-0.218,4.548-0.654,6.763c-0.436,2.218-1.347,4.606-2.726,7.172
			c-1.383,2.56-3.326,5.398-5.834,8.509c-2.512,3.105-5.834,6.715-9.983,10.821l-8.231,8.454h27.812l0.998,0.327l0.799,1.008
			l0.493,1.8c0.109,0.744,0.164,1.625,0.164,2.645c0,1.053-0.055,1.952-0.145,2.699l-0.4,1.828l-0.711,1.011l-0.981,0.297h-40.573
			l-2.073-0.218l-1.419-0.847l-0.802-1.822c-0.16-0.804-0.233-1.834-0.233-3.11C621.789,467.892,621.84,466.863,621.952,466.01z
			 M568.509,417.799l0.273-1.44l0.599-0.983l1.038-0.82l15.157-9.817l0.675-0.351l1.071-0.221l1.707-0.106
			c0.71-0.024,1.636-0.03,2.765-0.03c1.38,0,2.49,0.03,3.344,0.085c0.853,0.051,1.508,0.142,1.946,0.273l0.875,0.517l0.215,0.817
			v58.296h11.508l0.89,0.303l0.708,0.95l0.439,1.719c0.091,0.708,0.145,1.592,0.145,2.645c0,1.016-0.054,1.882-0.163,2.59
			l-0.472,1.695l-0.676,0.896l-0.871,0.273h-38.939l-0.817-0.273l-0.69-0.896l-0.454-1.695c-0.112-0.708-0.164-1.573-0.164-2.59
			c0-1.053,0.034-1.937,0.124-2.645l0.439-1.719l0.69-0.95l0.871-0.303h13.145v-45.917l-11.345,6.27l-2.054,0.738l-1.253-0.327
			l-0.617-1.61c-0.109-0.765-0.166-1.84-0.166-3.22C568.452,419.082,568.47,418.362,568.509,417.799z"/>
		<path style="fill:#AAD4C8;" d="M570.742,464.019l-0.871,0.303l-0.69,0.95l-0.439,1.719c-0.091,0.708-0.124,1.592-0.124,2.645
			c0,1.016,0.052,1.882,0.164,2.59l0.454,1.695l0.69,0.896l0.817,0.273h38.939l0.871-0.273l0.676-0.896l0.472-1.695
			c0.109-0.708,0.163-1.573,0.163-2.59c0-1.053-0.054-1.937-0.145-2.645l-0.439-1.719l-0.708-0.95l-0.89-0.303h-11.508v-58.296
			l-0.215-0.817l-0.875-0.517c-0.438-0.13-1.093-0.221-1.946-0.273c-0.853-0.055-1.964-0.085-3.344-0.085
			c-1.129,0-2.055,0.006-2.765,0.03l-1.707,0.106l-1.071,0.221l-0.675,0.351l-15.157,9.817l-1.038,0.82l-0.599,0.983l-0.273,1.44
			c-0.039,0.563-0.057,1.283-0.057,2.155c0,1.38,0.057,2.454,0.166,3.22l0.617,1.61l1.253,0.327l2.054-0.738l11.345-6.27v45.917
			H570.742z"/>
		<path style="fill:#AAD4C8;" d="M647.037,433.889c-0.838,1.728-2,3.634-3.492,5.728c-1.488,2.088-3.453,4.406-5.888,6.951
			l-12.216,13.087l-1.782,2.1l-1.108,1.961c-0.291,0.672-0.49,1.44-0.599,2.294c-0.112,0.853-0.164,1.882-0.164,3.081
			c0,1.277,0.073,2.306,0.233,3.11l0.802,1.822l1.419,0.847l2.073,0.218h40.573l0.981-0.297l0.711-1.011l0.4-1.828
			c0.091-0.747,0.145-1.646,0.145-2.699c0-1.02-0.055-1.901-0.164-2.645l-0.493-1.8l-0.799-1.008l-0.998-0.327h-27.812l8.231-8.454
			c4.149-4.106,7.471-7.716,9.983-10.821c2.509-3.111,4.451-5.949,5.834-8.509c1.38-2.566,2.291-4.953,2.726-7.172
			c0.436-2.215,0.654-4.473,0.654-6.763c0-2.618-0.454-5.063-1.344-7.332c-0.89-2.276-2.237-4.237-4.055-5.889
			c-1.816-1.658-4.106-2.947-6.851-3.873c-2.747-0.926-5.946-1.392-9.616-1.392c-2.328,0-4.564,0.217-6.71,0.654
			c-2.145,0.436-4.106,0.974-5.891,1.609c-1.78,0.636-3.289,1.289-4.506,1.961c-1.22,0.672-2.054,1.229-2.509,1.665l-0.944,1.119
			l-0.436,1.089l-0.257,1.477l-0.072,2.094c0,1.241,0.039,2.282,0.13,3.135c0.091,0.859,0.214,1.537,0.363,2.045l0.563,1.093
			l0.853,0.33l1.965-0.847c0.835-0.566,1.87-1.18,3.125-1.852c1.253-0.678,2.708-1.283,4.363-1.828
			c1.652-0.545,3.562-0.82,5.707-0.82c1.529,0,2.854,0.227,3.983,0.681c1.125,0.454,2.051,1.083,2.799,1.882
			c0.744,0.799,1.307,1.734,1.688,2.808c0.382,1.072,0.584,2.209,0.584,3.407c0,1.311-0.163,2.693-0.475,4.146
			C648.436,430.569,647.873,432.161,647.037,433.889z"/>
		<path style="fill:#AAD4C8;" d="M705.624,462.197c-1.074,0.85-2.363,1.513-3.891,1.985c-1.526,0.472-3.29,0.711-5.29,0.711
			c-2.364,0-4.47-0.245-6.324-0.735c-1.855-0.496-3.475-1.023-4.854-1.586c-1.383-0.56-2.53-1.09-3.417-1.58
			c-0.892-0.49-1.51-0.735-1.873-0.735l-1.308,1.008c-0.292,0.672-0.439,1.879-0.439,3.628c0,1.05,0.019,1.952,0.076,2.696
			l0.273,1.855l0.433,1.283l0.747,0.983c0.327,0.291,1.017,0.705,2.07,1.25c1.056,0.548,2.385,1.074,4,1.583
			c1.619,0.508,3.492,0.935,5.598,1.283c2.109,0.345,4.364,0.521,6.763,0.521c3.964,0,7.617-0.484,10.964-1.449
			c3.344-0.966,6.215-2.369,8.615-4.227c2.4-1.852,4.273-4.14,5.619-6.869c1.341-2.724,2.015-5.853,2.015-9.381
			c0-2.109-0.363-4.079-1.089-5.916c-0.729-1.837-1.782-3.483-3.147-4.936c-1.362-1.453-3.017-2.663-4.981-3.631
			c-1.961-0.959-4.182-1.586-6.655-1.879v-0.16c2.073-0.509,3.891-1.271,5.471-2.294c1.586-1.017,2.908-2.252,3.964-3.704
			c1.056-1.456,1.855-3.111,2.4-4.966c0.544-1.852,0.816-3.852,0.816-5.994c0-2.766-0.472-5.247-1.398-7.45
			c-0.926-2.197-2.291-4.049-4.091-5.556c-1.797-1.513-4.016-2.666-6.651-3.468c-2.636-0.799-5.653-1.198-9.071-1.198
			c-2.618,0-5.055,0.224-7.287,0.678c-2.239,0.454-4.201,1.011-5.91,1.664c-1.71,0.66-3.129,1.332-4.255,2.022
			c-1.126,0.69-1.873,1.21-2.237,1.552l-0.799,0.953l-0.4,1.041l-0.218,1.495c-0.04,0.599-0.055,1.355-0.055,2.263
			c0,1.096,0.037,1.985,0.107,2.672l0.329,1.582l0.545,0.739l0.762,0.187c0.436,0,1.111-0.29,2.04-0.871
			c0.926-0.581,2.051-1.21,3.38-1.882c1.329-0.672,2.835-1.289,4.508-1.852c1.67-0.563,3.453-0.847,5.341-0.847
			c1.676,0,3.128,0.23,4.363,0.684c1.238,0.454,2.237,1.071,3.02,1.855c0.781,0.778,1.38,1.71,1.779,2.781
			c0.403,1.071,0.602,2.209,0.602,3.407c0,1.561-0.291,2.99-0.874,4.279c-0.581,1.295-1.437,2.39-2.545,3.298
			c-1.107,0.908-2.471,1.61-4.109,2.1c-1.634,0.496-3.508,0.738-5.617,0.738h-6.163l-1.127,0.218l-0.762,0.762l-0.435,1.556
			c-0.092,0.675-0.13,1.534-0.13,2.59c0,1.125,0.038,2.046,0.13,2.753l0.471,1.665l0.818,0.793l1.2,0.188h6.107
			c2.584,0,4.817,0.254,6.727,0.762c1.907,0.508,3.492,1.229,4.745,2.155c1.253,0.926,2.2,2.045,2.835,3.353
			c0.635,1.313,0.962,2.784,0.962,4.418c0,1.489-0.273,2.847-0.796,4.064C707.498,460.297,706.696,461.338,705.624,462.197z"/>
		<rect x="652.709" y="685.942" style="fill:#616E7D;" width="51.025" height="8.533"/>
		<rect x="652.709" y="708.964" style="fill:#616E7D;" width="51.025" height="8.534"/>
		<rect x="338.21" y="313.392" style="fill:#AAD4C8;" width="445.58" height="19.004"/>
	</g>
</g>
</svg>
